# xmcd
#
# Track frame offsets:
#	150
#	9383
#	25491
#	35896
#	47549
#	61045
#	74675
#	84561
#	96310
#	110804
#	122610
#	134647
#	146876
#	159892
#	172332
#	182429
#	195099
#	205792
#	218981
#	232630
#
# Disc length: 3288 seconds
#
# Revision: 2
# Processed by: cddbd v1.5.2PL0 Copyright (c) Steve Scherf et al.
# Submitted via: EasyCDDAExtractor 10.0.2.1
#
DISCID=1d0cd614
DTITLE=Ike Turner - Ike Turner and His Kings Of Rhythm
DYEAR=1963
DGENRE=Blues
TTITLE0=Get It Over Baby
TTITLE1=Dead Letter Blues
TTITLE2=Hey Little Girl
TTITLE3=I'm Gonna Forget About You Baby (Matchbox)
TTITLE4=The Snuggle
TTITLE5=No Teasing Around
TTITLE6=Love Is A Gamble
TTITLE7=You Can't Be The One For Me
TTITLE8=I'm Not Going Home
TTITLE9=Ugly Woman
TTITLE10=Bourbon Street Jump
TTITLE11=When My Baby Quit Me #2
TTITLE12=Old Brother Jack
TTITLE13=How Long Will It Last
TTITLE14=If Loving Is Believing
TTITLE15=Way Down In The Congo
TTITLE16=Why Should I Keep Trying
TTITLE17=When My Baby Quit Me #1
TTITLE18=I'm Lonesome Baby
TTITLE19=The Woodchuck
EXTD=
EXTT0=
EXTT1=
EXTT2=
EXTT3=
EXTT4=
EXTT5=
EXTT6=
EXTT7=
EXTT8=
EXTT9=
EXTT10=
EXTT11=
EXTT12=
EXTT13=
EXTT14=
EXTT15=
EXTT16=
EXTT17=
EXTT18=
EXTT19=
PLAYORDER=
